<?xml version="1.0" encoding="utf-8" standalone="no"?>
<!DOCTYPE svg PUBLIC "-//W3C//DTD SVG 1.1//EN"
  "http://www.w3.org/Graphics/SVG/1.1/DTD/svg11.dtd">
<svg xmlns:xlink="http://www.w3.org/1999/xlink" width="576pt" height="720pt" viewBox="0 0 576 720" xmlns="http://www.w3.org/2000/svg" version="1.1">
 <metadata>
  <rdf:RDF xmlns:dc="http://purl.org/dc/elements/1.1/" xmlns:cc="http://creativecommons.org/ns#" xmlns:rdf="http://www.w3.org/1999/02/22-rdf-syntax-ns#">
   <cc:Work>
    <dc:type rdf:resource="http://purl.org/dc/dcmitype/StillImage"/>
    <dc:date>2023-12-21T15:12:30.921124</dc:date>
    <dc:format>image/svg+xml</dc:format>
    <dc:creator>
     <cc:Agent>
      <dc:title>Matplotlib v3.8.2, https://matplotlib.org/</dc:title>
     </cc:Agent>
    </dc:creator>
   </cc:Work>
  </rdf:RDF>
 </metadata>
 <defs>
  <style type="text/css">*{stroke-linejoin: round; stroke-linecap: butt}</style>
 </defs>
 <g id="figure_1">
  <g id="patch_1">
   <path d="M 0 720 
L 576 720 
L 576 0 
L 0 0 
z
" style="fill: #ffffff"/>
  </g>
  <g id="axes_1">
   <g id="patch_2">
    <path d="M 72 206.921739 
L 518.4 206.921739 
L 518.4 86.4 
L 72 86.4 
z
" style="fill: #ffffff"/>
   </g>
   <g id="PolyCollection_1">
    <defs>
     <path id="m37139d2dae" d="M 72 -513.078261 
L 72 -513.078261 
L 76.509091 -513.078261 
L 81.018182 -513.078261 
L 85.527273 -513.078261 
L 90.036364 -513.078261 
L 94.545455 -513.078261 
L 99.054545 -513.078261 
L 103.563636 -513.078261 
L 108.072727 -513.078261 
L 112.581818 -513.078261 
L 117.090909 -513.078261 
L 121.6 -513.078261 
L 126.109091 -513.078261 
L 130.618182 -513.078261 
L 135.127273 -513.078261 
L 139.636364 -513.078261 
L 144.145455 -513.078261 
L 148.654545 -513.078261 
L 153.163636 -513.078261 
L 157.672727 -513.078261 
L 162.181818 -513.078261 
L 166.690909 -513.078261 
L 171.2 -513.078261 
L 175.709091 -513.078261 
L 180.218182 -513.078261 
L 184.727273 -513.078261 
L 189.236364 -513.078261 
L 193.745455 -513.078261 
L 198.254545 -513.078261 
L 202.763636 -513.078261 
L 207.272727 -513.078261 
L 211.781818 -513.078261 
L 216.290909 -513.078261 
L 220.8 -513.078261 
L 225.309091 -513.078261 
L 229.818182 -513.078261 
L 234.327273 -513.078261 
L 238.836364 -513.078261 
L 243.345455 -513.078261 
L 247.854545 -513.078261 
L 252.363636 -513.078261 
L 256.872727 -513.078261 
L 261.381818 -513.078261 
L 265.890909 -513.078261 
L 270.4 -513.078261 
L 274.909091 -513.078261 
L 279.418182 -513.078261 
L 283.927273 -513.078261 
L 288.436364 -513.078261 
L 292.945455 -513.078261 
L 297.454545 -513.078261 
L 301.963636 -513.078261 
L 306.472727 -513.078261 
L 310.981818 -513.078261 
L 315.490909 -513.078261 
L 320 -513.078261 
L 324.509091 -513.078261 
L 329.018182 -513.078261 
L 333.527273 -513.078261 
L 338.036364 -513.078261 
L 342.545455 -513.078261 
L 347.054545 -513.078261 
L 351.563636 -513.078261 
L 356.072727 -513.078261 
L 360.581818 -513.078261 
L 365.090909 -513.078261 
L 369.6 -513.078261 
L 374.109091 -513.078261 
L 378.618182 -513.078261 
L 383.127273 -513.078261 
L 387.636364 -513.078261 
L 392.145455 -513.078261 
L 396.654545 -513.078261 
L 401.163636 -513.078261 
L 405.672727 -513.078261 
L 410.181818 -513.078261 
L 414.690909 -513.078261 
L 419.2 -513.078261 
L 423.709091 -513.078261 
L 428.218182 -513.078261 
L 432.727273 -513.078261 
L 437.236364 -513.078261 
L 441.745455 -513.078261 
L 446.254545 -513.078261 
L 450.763636 -513.078261 
L 455.272727 -513.078261 
L 459.781818 -513.078261 
L 464.290909 -513.078261 
L 468.8 -513.078261 
L 473.309091 -513.078261 
L 477.818182 -513.078261 
L 482.327273 -513.078261 
L 486.836364 -513.078261 
L 491.345455 -513.078261 
L 495.854545 -513.078261 
L 500.363636 -513.078261 
L 504.872727 -513.078261 
L 509.381818 -513.078261 
L 513.890909 -513.078261 
L 518.4 -513.078261 
L 518.4 -513.078261 
L 518.4 -513.078261 
L 513.890909 -513.078261 
L 509.381818 -513.078261 
L 504.872727 -513.078261 
L 500.363636 -513.078261 
L 495.854545 -513.078261 
L 491.345455 -513.078261 
L 486.836364 -513.078261 
L 482.327273 -513.078261 
L 477.818182 -513.078261 
L 473.309091 -513.078261 
L 468.8 -513.078261 
L 464.290909 -513.078261 
L 459.781818 -513.078261 
L 455.272727 -513.078261 
L 450.763636 -513.078261 
L 446.254545 -513.078261 
L 441.745455 -513.078261 
L 437.236364 -513.078261 
L 432.727273 -513.078261 
L 428.218182 -513.078261 
L 423.709091 -513.078261 
L 419.2 -513.078261 
L 414.690909 -513.078261 
L 410.181818 -513.078261 
L 405.672727 -513.078261 
L 401.163636 -513.078261 
L 396.654545 -513.078261 
L 392.145455 -513.078261 
L 387.636364 -513.078261 
L 383.127273 -513.078261 
L 378.618182 -513.078261 
L 374.109091 -513.078261 
L 369.6 -513.078261 
L 365.090909 -513.078261 
L 360.581818 -513.078261 
L 356.072727 -513.078261 
L 351.563636 -513.078261 
L 347.054545 -513.078261 
L 342.545455 -513.078261 
L 338.036364 -513.078261 
L 333.527273 -513.078261 
L 329.018182 -513.078261 
L 324.509091 -513.078261 
L 320 -513.078263 
L 315.490909 -513.078267 
L 310.981818 -513.07828 
L 306.472727 -513.078317 
L 301.963636 -513.078423 
L 297.454545 -513.07871 
L 292.945455 -513.079458 
L 288.436364 -513.081324 
L 283.927273 -513.085796 
L 279.418182 -513.096068 
L 274.909091 -513.118691 
L 270.4 -513.166459 
L 265.890909 -513.263118 
L 261.381818 -513.450518 
L 256.872727 -513.798502 
L 252.363636 -514.417136 
L 247.854545 -515.469544 
L 243.345455 -517.18172 
L 238.836364 -519.843721 
L 234.327273 -523.79525 
L 229.818182 -529.389104 
L 225.309091 -536.929356 
L 220.8 -546.587801 
L 216.290909 -558.311408 
L 211.781818 -571.742491 
L 207.272727 -586.178392 
L 202.763636 -600.595004 
L 198.254545 -613.746481 
L 193.745455 -624.333846 
L 189.236364 -631.213511 
L 184.727273 -633.6 
L 180.218182 -631.213511 
L 175.709091 -624.333846 
L 171.2 -613.746481 
L 166.690909 -600.595004 
L 162.181818 -586.178392 
L 157.672727 -571.742491 
L 153.163636 -558.311408 
L 148.654545 -546.587801 
L 144.145455 -536.929356 
L 139.636364 -529.389104 
L 135.127273 -523.79525 
L 130.618182 -519.843721 
L 126.109091 -517.18172 
L 121.6 -515.469544 
L 117.090909 -514.417136 
L 112.581818 -513.798502 
L 108.072727 -513.450518 
L 103.563636 -513.263118 
L 99.054545 -513.166459 
L 94.545455 -513.118691 
L 90.036364 -513.096068 
L 85.527273 -513.085796 
L 81.018182 -513.081324 
L 76.509091 -513.079458 
L 72 -513.078261 
z
" style="stroke: #0000ff; stroke-opacity: 0.4"/>
    </defs>
    <g clip-path="url(#pcfc093f760)">
     <use xlink:href="#m37139d2dae" x="0" y="720" style="fill: #0000ff; fill-opacity: 0.4; stroke: #0000ff; stroke-opacity: 0.4"/>
    </g>
   </g>
   <g id="matplotlib.axis_1">
    <g id="xtick_1">
     <g id="line2d_1">
      <path d="M 180.218182 206.921739 
L 180.218182 86.4 
" clip-path="url(#pcfc093f760)" style="fill: none; stroke: #b0b0b0; stroke-width: 0.8; stroke-linecap: square"/>
     </g>
     <g id="line2d_2">
      <defs>
       <path id="m790cb88454" d="M 0 0 
L 0 3.5 
" style="stroke: #000000; stroke-width: 0.8"/>
      </defs>
      <g>
       <use xlink:href="#m790cb88454" x="180.218182" y="206.921739" style="stroke: #000000; stroke-width: 0.8"/>
      </g>
     </g>
    </g>
    <g id="xtick_2">
     <g id="line2d_3">
      <path d="M 292.945455 206.921739 
L 292.945455 86.4 
" clip-path="url(#pcfc093f760)" style="fill: none; stroke: #b0b0b0; stroke-width: 0.8; stroke-linecap: square"/>
     </g>
     <g id="line2d_4">
      <g>
       <use xlink:href="#m790cb88454" x="292.945455" y="206.921739" style="stroke: #000000; stroke-width: 0.8"/>
      </g>
     </g>
    </g>
    <g id="xtick_3">
     <g id="line2d_5">
      <path d="M 405.672727 206.921739 
L 405.672727 86.4 
" clip-path="url(#pcfc093f760)" style="fill: none; stroke: #b0b0b0; stroke-width: 0.8; stroke-linecap: square"/>
     </g>
     <g id="line2d_6">
      <g>
       <use xlink:href="#m790cb88454" x="405.672727" y="206.921739" style="stroke: #000000; stroke-width: 0.8"/>
      </g>
     </g>
    </g>
    <g id="xtick_4">
     <g id="line2d_7">
      <path d="M 518.4 206.921739 
L 518.4 86.4 
" clip-path="url(#pcfc093f760)" style="fill: none; stroke: #b0b0b0; stroke-width: 0.8; stroke-linecap: square"/>
     </g>
     <g id="line2d_8">
      <g>
       <use xlink:href="#m790cb88454" x="518.4" y="206.921739" style="stroke: #000000; stroke-width: 0.8"/>
      </g>
     </g>
    </g>
   </g>
   <g id="matplotlib.axis_2">
    <g id="ytick_1">
     <g id="line2d_9">
      <path d="M 72 206.921739 
L 518.4 206.921739 
" clip-path="url(#pcfc093f760)" style="fill: none; stroke: #b0b0b0; stroke-width: 0.8; stroke-linecap: square"/>
     </g>
     <g id="line2d_10">
      <defs>
       <path id="m2294ba45ae" d="M 0 0 
L -3.5 0 
" style="stroke: #000000; stroke-width: 0.8"/>
      </defs>
      <g>
       <use xlink:href="#m2294ba45ae" x="72" y="206.921739" style="stroke: #000000; stroke-width: 0.8"/>
      </g>
     </g>
     <g id="text_1">
      <!-- 0.00 -->
      <g transform="translate(29.375 213.000489) scale(0.16 -0.16)">
       <defs>
        <path id="DejaVuSans-30" d="M 2034 4250 
Q 1547 4250 1301 3770 
Q 1056 3291 1056 2328 
Q 1056 1369 1301 889 
Q 1547 409 2034 409 
Q 2525 409 2770 889 
Q 3016 1369 3016 2328 
Q 3016 3291 2770 3770 
Q 2525 4250 2034 4250 
z
M 2034 4750 
Q 2819 4750 3233 4129 
Q 3647 3509 3647 2328 
Q 3647 1150 3233 529 
Q 2819 -91 2034 -91 
Q 1250 -91 836 529 
Q 422 1150 422 2328 
Q 422 3509 836 4129 
Q 1250 4750 2034 4750 
z
" transform="scale(0.015625)"/>
        <path id="DejaVuSans-2e" d="M 684 794 
L 1344 794 
L 1344 0 
L 684 0 
L 684 794 
z
" transform="scale(0.015625)"/>
       </defs>
       <use xlink:href="#DejaVuSans-30"/>
       <use xlink:href="#DejaVuSans-2e" x="63.623047"/>
       <use xlink:href="#DejaVuSans-30" x="95.410156"/>
       <use xlink:href="#DejaVuSans-30" x="159.033203"/>
      </g>
     </g>
    </g>
    <g id="ytick_2">
     <g id="line2d_11">
      <path d="M 72 176.791304 
L 518.4 176.791304 
" clip-path="url(#pcfc093f760)" style="fill: none; stroke: #b0b0b0; stroke-width: 0.8; stroke-linecap: square"/>
     </g>
     <g id="line2d_12">
      <g>
       <use xlink:href="#m2294ba45ae" x="72" y="176.791304" style="stroke: #000000; stroke-width: 0.8"/>
      </g>
     </g>
     <g id="text_2">
      <!-- 0.25 -->
      <g transform="translate(29.375 182.870054) scale(0.16 -0.16)">
       <defs>
        <path id="DejaVuSans-32" d="M 1228 531 
L 3431 531 
L 3431 0 
L 469 0 
L 469 531 
Q 828 903 1448 1529 
Q 2069 2156 2228 2338 
Q 2531 2678 2651 2914 
Q 2772 3150 2772 3378 
Q 2772 3750 2511 3984 
Q 2250 4219 1831 4219 
Q 1534 4219 1204 4116 
Q 875 4013 500 3803 
L 500 4441 
Q 881 4594 1212 4672 
Q 1544 4750 1819 4750 
Q 2544 4750 2975 4387 
Q 3406 4025 3406 3419 
Q 3406 3131 3298 2873 
Q 3191 2616 2906 2266 
Q 2828 2175 2409 1742 
Q 1991 1309 1228 531 
z
" transform="scale(0.015625)"/>
        <path id="DejaVuSans-35" d="M 691 4666 
L 3169 4666 
L 3169 4134 
L 1269 4134 
L 1269 2991 
Q 1406 3038 1543 3061 
Q 1681 3084 1819 3084 
Q 2600 3084 3056 2656 
Q 3513 2228 3513 1497 
Q 3513 744 3044 326 
Q 2575 -91 1722 -91 
Q 1428 -91 1123 -41 
Q 819 9 494 109 
L 494 744 
Q 775 591 1075 516 
Q 1375 441 1709 441 
Q 2250 441 2565 725 
Q 2881 1009 2881 1497 
Q 2881 1984 2565 2268 
Q 2250 2553 1709 2553 
Q 1456 2553 1204 2497 
Q 953 2441 691 2322 
L 691 4666 
z
" transform="scale(0.015625)"/>
       </defs>
       <use xlink:href="#DejaVuSans-30"/>
       <use xlink:href="#DejaVuSans-2e" x="63.623047"/>
       <use xlink:href="#DejaVuSans-32" x="95.410156"/>
       <use xlink:href="#DejaVuSans-35" x="159.033203"/>
      </g>
     </g>
    </g>
    <g id="ytick_3">
     <g id="line2d_13">
      <path d="M 72 146.66087 
L 518.4 146.66087 
" clip-path="url(#pcfc093f760)" style="fill: none; stroke: #b0b0b0; stroke-width: 0.8; stroke-linecap: square"/>
     </g>
     <g id="line2d_14">
      <g>
       <use xlink:href="#m2294ba45ae" x="72" y="146.66087" style="stroke: #000000; stroke-width: 0.8"/>
      </g>
     </g>
     <g id="text_3">
      <!-- 0.50 -->
      <g transform="translate(29.375 152.73962) scale(0.16 -0.16)">
       <use xlink:href="#DejaVuSans-30"/>
       <use xlink:href="#DejaVuSans-2e" x="63.623047"/>
       <use xlink:href="#DejaVuSans-35" x="95.410156"/>
       <use xlink:href="#DejaVuSans-30" x="159.033203"/>
      </g>
     </g>
    </g>
    <g id="ytick_4">
     <g id="line2d_15">
      <path d="M 72 116.530435 
L 518.4 116.530435 
" clip-path="url(#pcfc093f760)" style="fill: none; stroke: #b0b0b0; stroke-width: 0.8; stroke-linecap: square"/>
     </g>
     <g id="line2d_16">
      <g>
       <use xlink:href="#m2294ba45ae" x="72" y="116.530435" style="stroke: #000000; stroke-width: 0.8"/>
      </g>
     </g>
     <g id="text_4">
      <!-- 0.75 -->
      <g transform="translate(29.375 122.609185) scale(0.16 -0.16)">
       <defs>
        <path id="DejaVuSans-37" d="M 525 4666 
L 3525 4666 
L 3525 4397 
L 1831 0 
L 1172 0 
L 2766 4134 
L 525 4134 
L 525 4666 
z
" transform="scale(0.015625)"/>
       </defs>
       <use xlink:href="#DejaVuSans-30"/>
       <use xlink:href="#DejaVuSans-2e" x="63.623047"/>
       <use xlink:href="#DejaVuSans-37" x="95.410156"/>
       <use xlink:href="#DejaVuSans-35" x="159.033203"/>
      </g>
     </g>
    </g>
    <g id="ytick_5">
     <g id="line2d_17">
      <path d="M 72 86.4 
L 518.4 86.4 
" clip-path="url(#pcfc093f760)" style="fill: none; stroke: #b0b0b0; stroke-width: 0.8; stroke-linecap: square"/>
     </g>
     <g id="line2d_18">
      <g>
       <use xlink:href="#m2294ba45ae" x="72" y="86.4" style="stroke: #000000; stroke-width: 0.8"/>
      </g>
     </g>
     <g id="text_5">
      <!-- 1.00 -->
      <g transform="translate(29.375 92.47875) scale(0.16 -0.16)">
       <defs>
        <path id="DejaVuSans-31" d="M 794 531 
L 1825 531 
L 1825 4091 
L 703 3866 
L 703 4441 
L 1819 4666 
L 2450 4666 
L 2450 531 
L 3481 531 
L 3481 0 
L 794 0 
L 794 531 
z
" transform="scale(0.015625)"/>
       </defs>
       <use xlink:href="#DejaVuSans-31"/>
       <use xlink:href="#DejaVuSans-2e" x="63.623047"/>
       <use xlink:href="#DejaVuSans-30" x="95.410156"/>
       <use xlink:href="#DejaVuSans-30" x="159.033203"/>
      </g>
     </g>
    </g>
    <g id="text_6">
     <!-- Height -->
     <g transform="translate(22.0475 173.10712) rotate(-90) scale(0.16 -0.16)">
      <defs>
       <path id="DejaVuSans-48" d="M 628 4666 
L 1259 4666 
L 1259 2753 
L 3553 2753 
L 3553 4666 
L 4184 4666 
L 4184 0 
L 3553 0 
L 3553 2222 
L 1259 2222 
L 1259 0 
L 628 0 
L 628 4666 
z
" transform="scale(0.015625)"/>
       <path id="DejaVuSans-65" d="M 3597 1894 
L 3597 1613 
L 953 1613 
Q 991 1019 1311 708 
Q 1631 397 2203 397 
Q 2534 397 2845 478 
Q 3156 559 3463 722 
L 3463 178 
Q 3153 47 2828 -22 
Q 2503 -91 2169 -91 
Q 1331 -91 842 396 
Q 353 884 353 1716 
Q 353 2575 817 3079 
Q 1281 3584 2069 3584 
Q 2775 3584 3186 3129 
Q 3597 2675 3597 1894 
z
M 3022 2063 
Q 3016 2534 2758 2815 
Q 2500 3097 2075 3097 
Q 1594 3097 1305 2825 
Q 1016 2553 972 2059 
L 3022 2063 
z
" transform="scale(0.015625)"/>
       <path id="DejaVuSans-69" d="M 603 3500 
L 1178 3500 
L 1178 0 
L 603 0 
L 603 3500 
z
M 603 4863 
L 1178 4863 
L 1178 4134 
L 603 4134 
L 603 4863 
z
" transform="scale(0.015625)"/>
       <path id="DejaVuSans-67" d="M 2906 1791 
Q 2906 2416 2648 2759 
Q 2391 3103 1925 3103 
Q 1463 3103 1205 2759 
Q 947 2416 947 1791 
Q 947 1169 1205 825 
Q 1463 481 1925 481 
Q 2391 481 2648 825 
Q 2906 1169 2906 1791 
z
M 3481 434 
Q 3481 -459 3084 -895 
Q 2688 -1331 1869 -1331 
Q 1566 -1331 1297 -1286 
Q 1028 -1241 775 -1147 
L 775 -588 
Q 1028 -725 1275 -790 
Q 1522 -856 1778 -856 
Q 2344 -856 2625 -561 
Q 2906 -266 2906 331 
L 2906 616 
Q 2728 306 2450 153 
Q 2172 0 1784 0 
Q 1141 0 747 490 
Q 353 981 353 1791 
Q 353 2603 747 3093 
Q 1141 3584 1784 3584 
Q 2172 3584 2450 3431 
Q 2728 3278 2906 2969 
L 2906 3500 
L 3481 3500 
L 3481 434 
z
" transform="scale(0.015625)"/>
       <path id="DejaVuSans-68" d="M 3513 2113 
L 3513 0 
L 2938 0 
L 2938 2094 
Q 2938 2591 2744 2837 
Q 2550 3084 2163 3084 
Q 1697 3084 1428 2787 
Q 1159 2491 1159 1978 
L 1159 0 
L 581 0 
L 581 4863 
L 1159 4863 
L 1159 2956 
Q 1366 3272 1645 3428 
Q 1925 3584 2291 3584 
Q 2894 3584 3203 3211 
Q 3513 2838 3513 2113 
z
" transform="scale(0.015625)"/>
       <path id="DejaVuSans-74" d="M 1172 4494 
L 1172 3500 
L 2356 3500 
L 2356 3053 
L 1172 3053 
L 1172 1153 
Q 1172 725 1289 603 
Q 1406 481 1766 481 
L 2356 481 
L 2356 0 
L 1766 0 
Q 1100 0 847 248 
Q 594 497 594 1153 
L 594 3053 
L 172 3053 
L 172 3500 
L 594 3500 
L 594 4494 
L 1172 4494 
z
" transform="scale(0.015625)"/>
      </defs>
      <use xlink:href="#DejaVuSans-48"/>
      <use xlink:href="#DejaVuSans-65" x="75.195312"/>
      <use xlink:href="#DejaVuSans-69" x="136.71875"/>
      <use xlink:href="#DejaVuSans-67" x="164.501953"/>
      <use xlink:href="#DejaVuSans-68" x="227.978516"/>
      <use xlink:href="#DejaVuSans-74" x="291.357422"/>
     </g>
    </g>
   </g>
   <g id="line2d_19">
    <path d="M 72 206.921739 
L 76.509091 206.920542 
L 81.018182 206.918676 
L 85.527273 206.914204 
L 90.036364 206.903932 
L 94.545455 206.881309 
L 99.054545 206.833541 
L 103.563636 206.736882 
L 108.072727 206.549482 
L 112.581818 206.201498 
L 117.090909 205.582864 
L 121.6 204.530456 
L 126.109091 202.81828 
L 130.618182 200.156279 
L 135.127273 196.20475 
L 139.636364 190.610896 
L 144.145455 183.070644 
L 148.654545 173.412199 
L 153.163636 161.688592 
L 157.672727 148.257509 
L 162.181818 133.821608 
L 166.690909 119.404996 
L 171.2 106.253519 
L 175.709091 95.666154 
L 180.218182 88.786489 
L 184.727273 86.4 
L 189.236364 88.786489 
L 193.745455 95.666154 
L 198.254545 106.253519 
L 202.763636 119.404996 
L 207.272727 133.821608 
L 211.781818 148.257509 
L 216.290909 161.688592 
L 220.8 173.412199 
L 225.309091 183.070644 
L 229.818182 190.610896 
L 234.327273 196.20475 
L 238.836364 200.156279 
L 243.345455 202.81828 
L 247.854545 204.530456 
L 252.363636 205.582864 
L 256.872727 206.201498 
L 261.381818 206.549482 
L 265.890909 206.736882 
L 270.4 206.833541 
L 274.909091 206.881309 
L 279.418182 206.903932 
L 283.927273 206.914204 
L 288.436364 206.918676 
L 292.945455 206.920542 
L 297.454545 206.92129 
L 301.963636 206.921577 
L 306.472727 206.921683 
L 310.981818 206.92172 
L 315.490909 206.921733 
L 320 206.921737 
L 324.509091 206.921739 
L 329.018182 206.921739 
L 333.527273 206.921739 
L 338.036364 206.921739 
L 342.545455 206.921739 
L 347.054545 206.921739 
L 351.563636 206.921739 
L 356.072727 206.921739 
L 360.581818 206.921739 
L 365.090909 206.921739 
L 369.6 206.921739 
L 374.109091 206.921739 
L 378.618182 206.921739 
L 383.127273 206.921739 
L 387.636364 206.921739 
L 392.145455 206.921739 
L 396.654545 206.921739 
L 401.163636 206.921739 
L 405.672727 206.921739 
L 410.181818 206.921739 
L 414.690909 206.921739 
L 419.2 206.921739 
L 423.709091 206.921739 
L 428.218182 206.921739 
L 432.727273 206.921739 
L 437.236364 206.921739 
L 441.745455 206.921739 
L 446.254545 206.921739 
L 450.763636 206.921739 
L 455.272727 206.921739 
L 459.781818 206.921739 
L 464.290909 206.921739 
L 468.8 206.921739 
L 473.309091 206.921739 
L 477.818182 206.921739 
L 482.327273 206.921739 
L 486.836364 206.921739 
L 491.345455 206.921739 
L 495.854545 206.921739 
L 500.363636 206.921739 
L 504.872727 206.921739 
L 509.381818 206.921739 
L 513.890909 206.921739 
L 518.4 206.921739 
" clip-path="url(#pcfc093f760)" style="fill: none; stroke: #0000ff; stroke-width: 1.5; stroke-linecap: square"/>
   </g>
   <g id="patch_3">
    <path d="M 72 206.921739 
L 72 86.4 
" style="fill: none; stroke: #000000; stroke-width: 0.8; stroke-linejoin: miter; stroke-linecap: square"/>
   </g>
   <g id="patch_4">
    <path d="M 518.4 206.921739 
L 518.4 86.4 
" style="fill: none; stroke: #000000; stroke-width: 0.8; stroke-linejoin: miter; stroke-linecap: square"/>
   </g>
   <g id="patch_5">
    <path d="M 72 206.921739 
L 518.4 206.921739 
" style="fill: none; stroke: #000000; stroke-width: 0.8; stroke-linejoin: miter; stroke-linecap: square"/>
   </g>
   <g id="patch_6">
    <path d="M 72 86.4 
L 518.4 86.4 
" style="fill: none; stroke: #000000; stroke-width: 0.8; stroke-linejoin: miter; stroke-linecap: square"/>
   </g>
   <g id="text_7">
    <!-- Time step   0 -->
    <g transform="translate(232.6335 80.4) scale(0.192 -0.192)">
     <defs>
      <path id="DejaVuSans-54" d="M -19 4666 
L 3928 4666 
L 3928 4134 
L 2272 4134 
L 2272 0 
L 1638 0 
L 1638 4134 
L -19 4134 
L -19 4666 
z
" transform="scale(0.015625)"/>
      <path id="DejaVuSans-6d" d="M 3328 2828 
Q 3544 3216 3844 3400 
Q 4144 3584 4550 3584 
Q 5097 3584 5394 3201 
Q 5691 2819 5691 2113 
L 5691 0 
L 5113 0 
L 5113 2094 
Q 5113 2597 4934 2840 
Q 4756 3084 4391 3084 
Q 3944 3084 3684 2787 
Q 3425 2491 3425 1978 
L 3425 0 
L 2847 0 
L 2847 2094 
Q 2847 2600 2669 2842 
Q 2491 3084 2119 3084 
Q 1678 3084 1418 2786 
Q 1159 2488 1159 1978 
L 1159 0 
L 581 0 
L 581 3500 
L 1159 3500 
L 1159 2956 
Q 1356 3278 1631 3431 
Q 1906 3584 2284 3584 
Q 2666 3584 2933 3390 
Q 3200 3197 3328 2828 
z
" transform="scale(0.015625)"/>
      <path id="DejaVuSans-20" transform="scale(0.015625)"/>
      <path id="DejaVuSans-73" d="M 2834 3397 
L 2834 2853 
Q 2591 2978 2328 3040 
Q 2066 3103 1784 3103 
Q 1356 3103 1142 2972 
Q 928 2841 928 2578 
Q 928 2378 1081 2264 
Q 1234 2150 1697 2047 
L 1894 2003 
Q 2506 1872 2764 1633 
Q 3022 1394 3022 966 
Q 3022 478 2636 193 
Q 2250 -91 1575 -91 
Q 1294 -91 989 -36 
Q 684 19 347 128 
L 347 722 
Q 666 556 975 473 
Q 1284 391 1588 391 
Q 1994 391 2212 530 
Q 2431 669 2431 922 
Q 2431 1156 2273 1281 
Q 2116 1406 1581 1522 
L 1381 1569 
Q 847 1681 609 1914 
Q 372 2147 372 2553 
Q 372 3047 722 3315 
Q 1072 3584 1716 3584 
Q 2034 3584 2315 3537 
Q 2597 3491 2834 3397 
z
" transform="scale(0.015625)"/>
      <path id="DejaVuSans-70" d="M 1159 525 
L 1159 -1331 
L 581 -1331 
L 581 3500 
L 1159 3500 
L 1159 2969 
Q 1341 3281 1617 3432 
Q 1894 3584 2278 3584 
Q 2916 3584 3314 3078 
Q 3713 2572 3713 1747 
Q 3713 922 3314 415 
Q 2916 -91 2278 -91 
Q 1894 -91 1617 61 
Q 1341 213 1159 525 
z
M 3116 1747 
Q 3116 2381 2855 2742 
Q 2594 3103 2138 3103 
Q 1681 3103 1420 2742 
Q 1159 2381 1159 1747 
Q 1159 1113 1420 752 
Q 1681 391 2138 391 
Q 2594 391 2855 752 
Q 3116 1113 3116 1747 
z
" transform="scale(0.015625)"/>
     </defs>
     <use xlink:href="#DejaVuSans-54"/>
     <use xlink:href="#DejaVuSans-69" x="57.958984"/>
     <use xlink:href="#DejaVuSans-6d" x="85.742188"/>
     <use xlink:href="#DejaVuSans-65" x="183.154297"/>
     <use xlink:href="#DejaVuSans-20" x="244.677734"/>
     <use xlink:href="#DejaVuSans-73" x="276.464844"/>
     <use xlink:href="#DejaVuSans-74" x="328.564453"/>
     <use xlink:href="#DejaVuSans-65" x="367.773438"/>
     <use xlink:href="#DejaVuSans-70" x="429.296875"/>
     <use xlink:href="#DejaVuSans-20" x="492.773438"/>
     <use xlink:href="#DejaVuSans-20" x="524.560547"/>
     <use xlink:href="#DejaVuSans-20" x="556.347656"/>
     <use xlink:href="#DejaVuSans-30" x="588.134766"/>
    </g>
   </g>
  </g>
  <g id="axes_2">
   <g id="patch_7">
    <path d="M 72 351.547826 
L 518.4 351.547826 
L 518.4 231.026087 
L 72 231.026087 
z
" style="fill: #ffffff"/>
   </g>
   <g id="PolyCollection_2">
    <defs>
     <path id="m6890ba6dec" d="M 72 -368.452174 
L 72 -368.452174 
L 76.509091 -368.452174 
L 81.018182 -368.452174 
L 85.527273 -368.452174 
L 90.036364 -368.452174 
L 94.545455 -368.452174 
L 99.054545 -368.452174 
L 103.563636 -368.452174 
L 108.072727 -368.452174 
L 112.581818 -368.452174 
L 117.090909 -368.452174 
L 121.6 -368.452174 
L 126.109091 -368.452174 
L 130.618182 -368.452174 
L 135.127273 -368.452174 
L 139.636364 -368.452174 
L 144.145455 -368.452174 
L 148.654545 -368.452174 
L 153.163636 -368.452174 
L 157.672727 -368.452174 
L 162.181818 -368.452174 
L 166.690909 -368.452174 
L 171.2 -368.452174 
L 175.709091 -368.452174 
L 180.218182 -368.452174 
L 184.727273 -368.452174 
L 189.236364 -368.452174 
L 193.745455 -368.452174 
L 198.254545 -368.452174 
L 202.763636 -368.452174 
L 207.272727 -368.452174 
L 211.781818 -368.452174 
L 216.290909 -368.452174 
L 220.8 -368.452174 
L 225.309091 -368.452174 
L 229.818182 -368.452174 
L 234.327273 -368.452174 
L 238.836364 -368.452174 
L 243.345455 -368.452174 
L 247.854545 -368.452174 
L 252.363636 -368.452174 
L 256.872727 -368.452174 
L 261.381818 -368.452174 
L 265.890909 -368.452174 
L 270.4 -368.452174 
L 274.909091 -368.452174 
L 279.418182 -368.452174 
L 283.927273 -368.452174 
L 288.436364 -368.452174 
L 292.945455 -368.452174 
L 297.454545 -368.452174 
L 301.963636 -368.452174 
L 306.472727 -368.452174 
L 310.981818 -368.452174 
L 315.490909 -368.452174 
L 320 -368.452174 
L 324.509091 -368.452174 
L 329.018182 -368.452174 
L 333.527273 -368.452174 
L 338.036364 -368.452174 
L 342.545455 -368.452174 
L 347.054545 -368.452174 
L 351.563636 -368.452174 
L 356.072727 -368.452174 
L 360.581818 -368.452174 
L 365.090909 -368.452174 
L 369.6 -368.452174 
L 374.109091 -368.452174 
L 378.618182 -368.452174 
L 383.127273 -368.452174 
L 387.636364 -368.452174 
L 392.145455 -368.452174 
L 396.654545 -368.452174 
L 401.163636 -368.452174 
L 405.672727 -368.452174 
L 410.181818 -368.452174 
L 414.690909 -368.452174 
L 419.2 -368.452174 
L 423.709091 -368.452174 
L 428.218182 -368.452174 
L 432.727273 -368.452174 
L 437.236364 -368.452174 
L 441.745455 -368.452174 
L 446.254545 -368.452174 
L 450.763636 -368.452174 
L 455.272727 -368.452174 
L 459.781818 -368.452174 
L 464.290909 -368.452174 
L 468.8 -368.452174 
L 473.309091 -368.452174 
L 477.818182 -368.452174 
L 482.327273 -368.452174 
L 486.836364 -368.452174 
L 491.345455 -368.452174 
L 495.854545 -368.452174 
L 500.363636 -368.452174 
L 504.872727 -368.452174 
L 509.381818 -368.452174 
L 513.890909 -368.452174 
L 518.4 -368.452174 
L 518.4 -368.452174 
L 518.4 -368.452174 
L 513.890909 -368.452174 
L 509.381818 -368.452174 
L 504.872727 -368.452174 
L 500.363636 -368.452174 
L 495.854545 -368.452174 
L 491.345455 -368.452174 
L 486.836364 -368.452174 
L 482.327273 -368.452174 
L 477.818182 -368.452174 
L 473.309091 -368.452174 
L 468.8 -368.452174 
L 464.290909 -368.452174 
L 459.781818 -368.452174 
L 455.272727 -368.452174 
L 450.763636 -368.452174 
L 446.254545 -368.452174 
L 441.745455 -368.452174 
L 437.236364 -368.452174 
L 432.727273 -368.452176 
L 428.218182 -368.45218 
L 423.709091 -368.452193 
L 419.2 -368.45223 
L 414.690909 -368.452336 
L 410.181818 -368.452623 
L 405.672727 -368.453371 
L 401.163636 -368.455237 
L 396.654545 -368.459709 
L 392.145455 -368.469981 
L 387.636364 -368.492604 
L 383.127273 -368.540372 
L 378.618182 -368.637031 
L 374.109091 -368.824431 
L 369.6 -369.172415 
L 365.090909 -369.791049 
L 360.581818 -370.843457 
L 356.072727 -372.555633 
L 351.563636 -375.217634 
L 347.054545 -379.169163 
L 342.545455 -384.763017 
L 338.036364 -392.30327 
L 333.527273 -401.961714 
L 329.018182 -413.685321 
L 324.509091 -427.116404 
L 320 -441.552305 
L 315.490909 -455.968917 
L 310.981818 -469.120394 
L 306.472727 -479.707759 
L 301.963636 -486.587424 
L 297.454545 -488.973913 
L 292.945455 -486.587424 
L 288.436364 -479.707759 
L 283.927273 -469.120394 
L 279.418182 -455.968917 
L 274.909091 -441.552305 
L 270.4 -427.116404 
L 265.890909 -413.685321 
L 261.381818 -401.961714 
L 256.872727 -392.30327 
L 252.363636 -384.763017 
L 247.854545 -379.169163 
L 243.345455 -375.217634 
L 238.836364 -372.555633 
L 234.327273 -370.843457 
L 229.818182 -369.791049 
L 225.309091 -369.172415 
L 220.8 -368.824431 
L 216.290909 -368.637031 
L 211.781818 -368.540372 
L 207.272727 -368.492604 
L 202.763636 -368.469981 
L 198.254545 -368.459709 
L 193.745455 -368.455237 
L 189.236364 -368.453371 
L 184.727273 -368.452174 
L 180.218182 -368.452174 
L 175.709091 -368.452174 
L 171.2 -368.452174 
L 166.690909 -368.452174 
L 162.181818 -368.452174 
L 157.672727 -368.452174 
L 153.163636 -368.452174 
L 148.654545 -368.452174 
L 144.145455 -368.452174 
L 139.636364 -368.452174 
L 135.127273 -368.452174 
L 130.618182 -368.452174 
L 126.109091 -368.452174 
L 121.6 -368.452174 
L 117.090909 -368.452174 
L 112.581818 -368.452174 
L 108.072727 -368.452174 
L 103.563636 -368.452174 
L 99.054545 -368.452174 
L 94.545455 -368.452174 
L 90.036364 -368.452174 
L 85.527273 -368.452174 
L 81.018182 -368.452174 
L 76.509091 -368.452174 
L 72 -368.452174 
z
" style="stroke: #0000ff; stroke-opacity: 0.4"/>
    </defs>
    <g clip-path="url(#pffe30bd21d)">
     <use xlink:href="#m6890ba6dec" x="0" y="720" style="fill: #0000ff; fill-opacity: 0.4; stroke: #0000ff; stroke-opacity: 0.4"/>
    </g>
   </g>
   <g id="matplotlib.axis_3">
    <g id="xtick_5">
     <g id="line2d_20">
      <path d="M 180.218182 351.547826 
L 180.218182 231.026087 
" clip-path="url(#pffe30bd21d)" style="fill: none; stroke: #b0b0b0; stroke-width: 0.8; stroke-linecap: square"/>
     </g>
     <g id="line2d_21">
      <g>
       <use xlink:href="#m790cb88454" x="180.218182" y="351.547826" style="stroke: #000000; stroke-width: 0.8"/>
      </g>
     </g>
    </g>
    <g id="xtick_6">
     <g id="line2d_22">
      <path d="M 292.945455 351.547826 
L 292.945455 231.026087 
" clip-path="url(#pffe30bd21d)" style="fill: none; stroke: #b0b0b0; stroke-width: 0.8; stroke-linecap: square"/>
     </g>
     <g id="line2d_23">
      <g>
       <use xlink:href="#m790cb88454" x="292.945455" y="351.547826" style="stroke: #000000; stroke-width: 0.8"/>
      </g>
     </g>
    </g>
    <g id="xtick_7">
     <g id="line2d_24">
      <path d="M 405.672727 351.547826 
L 405.672727 231.026087 
" clip-path="url(#pffe30bd21d)" style="fill: none; stroke: #b0b0b0; stroke-width: 0.8; stroke-linecap: square"/>
     </g>
     <g id="line2d_25">
      <g>
       <use xlink:href="#m790cb88454" x="405.672727" y="351.547826" style="stroke: #000000; stroke-width: 0.8"/>
      </g>
     </g>
    </g>
    <g id="xtick_8">
     <g id="line2d_26">
      <path d="M 518.4 351.547826 
L 518.4 231.026087 
" clip-path="url(#pffe30bd21d)" style="fill: none; stroke: #b0b0b0; stroke-width: 0.8; stroke-linecap: square"/>
     </g>
     <g id="line2d_27">
      <g>
       <use xlink:href="#m790cb88454" x="518.4" y="351.547826" style="stroke: #000000; stroke-width: 0.8"/>
      </g>
     </g>
    </g>
   </g>
   <g id="matplotlib.axis_4">
    <g id="ytick_6">
     <g id="line2d_28">
      <path d="M 72 351.547826 
L 518.4 351.547826 
" clip-path="url(#pffe30bd21d)" style="fill: none; stroke: #b0b0b0; stroke-width: 0.8; stroke-linecap: square"/>
     </g>
     <g id="line2d_29">
      <g>
       <use xlink:href="#m2294ba45ae" x="72" y="351.547826" style="stroke: #000000; stroke-width: 0.8"/>
      </g>
     </g>
     <g id="text_8">
      <!-- 0.00 -->
      <g transform="translate(29.375 357.626576) scale(0.16 -0.16)">
       <use xlink:href="#DejaVuSans-30"/>
       <use xlink:href="#DejaVuSans-2e" x="63.623047"/>
       <use xlink:href="#DejaVuSans-30" x="95.410156"/>
       <use xlink:href="#DejaVuSans-30" x="159.033203"/>
      </g>
     </g>
    </g>
    <g id="ytick_7">
     <g id="line2d_30">
      <path d="M 72 321.417391 
L 518.4 321.417391 
" clip-path="url(#pffe30bd21d)" style="fill: none; stroke: #b0b0b0; stroke-width: 0.8; stroke-linecap: square"/>
     </g>
     <g id="line2d_31">
      <g>
       <use xlink:href="#m2294ba45ae" x="72" y="321.417391" style="stroke: #000000; stroke-width: 0.8"/>
      </g>
     </g>
     <g id="text_9">
      <!-- 0.25 -->
      <g transform="translate(29.375 327.496141) scale(0.16 -0.16)">
       <use xlink:href="#DejaVuSans-30"/>
       <use xlink:href="#DejaVuSans-2e" x="63.623047"/>
       <use xlink:href="#DejaVuSans-32" x="95.410156"/>
       <use xlink:href="#DejaVuSans-35" x="159.033203"/>
      </g>
     </g>
    </g>
    <g id="ytick_8">
     <g id="line2d_32">
      <path d="M 72 291.286957 
L 518.4 291.286957 
" clip-path="url(#pffe30bd21d)" style="fill: none; stroke: #b0b0b0; stroke-width: 0.8; stroke-linecap: square"/>
     </g>
     <g id="line2d_33">
      <g>
       <use xlink:href="#m2294ba45ae" x="72" y="291.286957" style="stroke: #000000; stroke-width: 0.8"/>
      </g>
     </g>
     <g id="text_10">
      <!-- 0.50 -->
      <g transform="translate(29.375 297.365707) scale(0.16 -0.16)">
       <use xlink:href="#DejaVuSans-30"/>
       <use xlink:href="#DejaVuSans-2e" x="63.623047"/>
       <use xlink:href="#DejaVuSans-35" x="95.410156"/>
       <use xlink:href="#DejaVuSans-30" x="159.033203"/>
      </g>
     </g>
    </g>
    <g id="ytick_9">
     <g id="line2d_34">
      <path d="M 72 261.156522 
L 518.4 261.156522 
" clip-path="url(#pffe30bd21d)" style="fill: none; stroke: #b0b0b0; stroke-width: 0.8; stroke-linecap: square"/>
     </g>
     <g id="line2d_35">
      <g>
       <use xlink:href="#m2294ba45ae" x="72" y="261.156522" style="stroke: #000000; stroke-width: 0.8"/>
      </g>
     </g>
     <g id="text_11">
      <!-- 0.75 -->
      <g transform="translate(29.375 267.235272) scale(0.16 -0.16)">
       <use xlink:href="#DejaVuSans-30"/>
       <use xlink:href="#DejaVuSans-2e" x="63.623047"/>
       <use xlink:href="#DejaVuSans-37" x="95.410156"/>
       <use xlink:href="#DejaVuSans-35" x="159.033203"/>
      </g>
     </g>
    </g>
    <g id="ytick_10">
     <g id="line2d_36">
      <path d="M 72 231.026087 
L 518.4 231.026087 
" clip-path="url(#pffe30bd21d)" style="fill: none; stroke: #b0b0b0; stroke-width: 0.8; stroke-linecap: square"/>
     </g>
     <g id="line2d_37">
      <g>
       <use xlink:href="#m2294ba45ae" x="72" y="231.026087" style="stroke: #000000; stroke-width: 0.8"/>
      </g>
     </g>
     <g id="text_12">
      <!-- 1.00 -->
      <g transform="translate(29.375 237.104837) scale(0.16 -0.16)">
       <use xlink:href="#DejaVuSans-31"/>
       <use xlink:href="#DejaVuSans-2e" x="63.623047"/>
       <use xlink:href="#DejaVuSans-30" x="95.410156"/>
       <use xlink:href="#DejaVuSans-30" x="159.033203"/>
      </g>
     </g>
    </g>
    <g id="text_13">
     <!-- Height -->
     <g transform="translate(22.0475 317.733207) rotate(-90) scale(0.16 -0.16)">
      <use xlink:href="#DejaVuSans-48"/>
      <use xlink:href="#DejaVuSans-65" x="75.195312"/>
      <use xlink:href="#DejaVuSans-69" x="136.71875"/>
      <use xlink:href="#DejaVuSans-67" x="164.501953"/>
      <use xlink:href="#DejaVuSans-68" x="227.978516"/>
      <use xlink:href="#DejaVuSans-74" x="291.357422"/>
     </g>
    </g>
   </g>
   <g id="line2d_38">
    <path d="M 72 351.547826 
L 76.509091 351.547826 
L 81.018182 351.547826 
L 85.527273 351.547826 
L 90.036364 351.547826 
L 94.545455 351.547826 
L 99.054545 351.547826 
L 103.563636 351.547826 
L 108.072727 351.547826 
L 112.581818 351.547826 
L 117.090909 351.547826 
L 121.6 351.547826 
L 126.109091 351.547826 
L 130.618182 351.547826 
L 135.127273 351.547826 
L 139.636364 351.547826 
L 144.145455 351.547826 
L 148.654545 351.547826 
L 153.163636 351.547826 
L 157.672727 351.547826 
L 162.181818 351.547826 
L 166.690909 351.547826 
L 171.2 351.547826 
L 175.709091 351.547826 
L 180.218182 351.547826 
L 184.727273 351.547826 
L 189.236364 351.546629 
L 193.745455 351.544763 
L 198.254545 351.540291 
L 202.763636 351.530019 
L 207.272727 351.507396 
L 211.781818 351.459628 
L 216.290909 351.362969 
L 220.8 351.175569 
L 225.309091 350.827585 
L 229.818182 350.208951 
L 234.327273 349.156543 
L 238.836364 347.444367 
L 243.345455 344.782366 
L 247.854545 340.830837 
L 252.363636 335.236983 
L 256.872727 327.69673 
L 261.381818 318.038286 
L 265.890909 306.314679 
L 270.4 292.883596 
L 274.909091 278.447695 
L 279.418182 264.031083 
L 283.927273 250.879606 
L 288.436364 240.292241 
L 292.945455 233.412576 
L 297.454545 231.026087 
L 301.963636 233.412576 
L 306.472727 240.292241 
L 310.981818 250.879606 
L 315.490909 264.031083 
L 320 278.447695 
L 324.509091 292.883596 
L 329.018182 306.314679 
L 333.527273 318.038286 
L 338.036364 327.69673 
L 342.545455 335.236983 
L 347.054545 340.830837 
L 351.563636 344.782366 
L 356.072727 347.444367 
L 360.581818 349.156543 
L 365.090909 350.208951 
L 369.6 350.827585 
L 374.109091 351.175569 
L 378.618182 351.362969 
L 383.127273 351.459628 
L 387.636364 351.507396 
L 392.145455 351.530019 
L 396.654545 351.540291 
L 401.163636 351.544763 
L 405.672727 351.546629 
L 410.181818 351.547377 
L 414.690909 351.547664 
L 419.2 351.54777 
L 423.709091 351.547807 
L 428.218182 351.54782 
L 432.727273 351.547824 
L 437.236364 351.547826 
L 441.745455 351.547826 
L 446.254545 351.547826 
L 450.763636 351.547826 
L 455.272727 351.547826 
L 459.781818 351.547826 
L 464.290909 351.547826 
L 468.8 351.547826 
L 473.309091 351.547826 
L 477.818182 351.547826 
L 482.327273 351.547826 
L 486.836364 351.547826 
L 491.345455 351.547826 
L 495.854545 351.547826 
L 500.363636 351.547826 
L 504.872727 351.547826 
L 509.381818 351.547826 
L 513.890909 351.547826 
L 518.4 351.547826 
" clip-path="url(#pffe30bd21d)" style="fill: none; stroke: #0000ff; stroke-width: 1.5; stroke-linecap: square"/>
   </g>
   <g id="patch_8">
    <path d="M 72 351.547826 
L 72 231.026087 
" style="fill: none; stroke: #000000; stroke-width: 0.8; stroke-linejoin: miter; stroke-linecap: square"/>
   </g>
   <g id="patch_9">
    <path d="M 518.4 351.547826 
L 518.4 231.026087 
" style="fill: none; stroke: #000000; stroke-width: 0.8; stroke-linejoin: miter; stroke-linecap: square"/>
   </g>
   <g id="patch_10">
    <path d="M 72 351.547826 
L 518.4 351.547826 
" style="fill: none; stroke: #000000; stroke-width: 0.8; stroke-linejoin: miter; stroke-linecap: square"/>
   </g>
   <g id="patch_11">
    <path d="M 72 231.026087 
L 518.4 231.026087 
" style="fill: none; stroke: #000000; stroke-width: 0.8; stroke-linejoin: miter; stroke-linecap: square"/>
   </g>
   <g id="text_14">
    <!-- Time step  25 -->
    <g transform="translate(229.5765 225.026087) scale(0.192 -0.192)">
     <use xlink:href="#DejaVuSans-54"/>
     <use xlink:href="#DejaVuSans-69" x="57.958984"/>
     <use xlink:href="#DejaVuSans-6d" x="85.742188"/>
     <use xlink:href="#DejaVuSans-65" x="183.154297"/>
     <use xlink:href="#DejaVuSans-20" x="244.677734"/>
     <use xlink:href="#DejaVuSans-73" x="276.464844"/>
     <use xlink:href="#DejaVuSans-74" x="328.564453"/>
     <use xlink:href="#DejaVuSans-65" x="367.773438"/>
     <use xlink:href="#DejaVuSans-70" x="429.296875"/>
     <use xlink:href="#DejaVuSans-20" x="492.773438"/>
     <use xlink:href="#DejaVuSans-20" x="524.560547"/>
     <use xlink:href="#DejaVuSans-32" x="556.347656"/>
     <use xlink:href="#DejaVuSans-35" x="619.970703"/>
    </g>
   </g>
  </g>
  <g id="axes_3">
   <g id="patch_12">
    <path d="M 72 496.173913 
L 518.4 496.173913 
L 518.4 375.652174 
L 72 375.652174 
z
" style="fill: #ffffff"/>
   </g>
   <g id="PolyCollection_3">
    <defs>
     <path id="m9754de6c64" d="M 72 -223.826536 
L 72 -223.826087 
L 76.509091 -223.826087 
L 81.018182 -223.826087 
L 85.527273 -223.826087 
L 90.036364 -223.826087 
L 94.545455 -223.826087 
L 99.054545 -223.826087 
L 103.563636 -223.826087 
L 108.072727 -223.826087 
L 112.581818 -223.826087 
L 117.090909 -223.826087 
L 121.6 -223.826087 
L 126.109091 -223.826087 
L 130.618182 -223.826087 
L 135.127273 -223.826087 
L 139.636364 -223.826087 
L 144.145455 -223.826087 
L 148.654545 -223.826087 
L 153.163636 -223.826087 
L 157.672727 -223.826087 
L 162.181818 -223.826087 
L 166.690909 -223.826087 
L 171.2 -223.826087 
L 175.709091 -223.826087 
L 180.218182 -223.826087 
L 184.727273 -223.826087 
L 189.236364 -223.826087 
L 193.745455 -223.826087 
L 198.254545 -223.826087 
L 202.763636 -223.826087 
L 207.272727 -223.826087 
L 211.781818 -223.826087 
L 216.290909 -223.826087 
L 220.8 -223.826087 
L 225.309091 -223.826087 
L 229.818182 -223.826087 
L 234.327273 -223.826087 
L 238.836364 -223.826087 
L 243.345455 -223.826087 
L 247.854545 -223.826087 
L 252.363636 -223.826087 
L 256.872727 -223.826087 
L 261.381818 -223.826087 
L 265.890909 -223.826087 
L 270.4 -223.826087 
L 274.909091 -223.826087 
L 279.418182 -223.826087 
L 283.927273 -223.826087 
L 288.436364 -223.826087 
L 292.945455 -223.826087 
L 297.454545 -223.826087 
L 301.963636 -223.826087 
L 306.472727 -223.826087 
L 310.981818 -223.826087 
L 315.490909 -223.826087 
L 320 -223.826087 
L 324.509091 -223.826087 
L 329.018182 -223.826087 
L 333.527273 -223.826087 
L 338.036364 -223.826087 
L 342.545455 -223.826087 
L 347.054545 -223.826087 
L 351.563636 -223.826087 
L 356.072727 -223.826087 
L 360.581818 -223.826087 
L 365.090909 -223.826087 
L 369.6 -223.826087 
L 374.109091 -223.826087 
L 378.618182 -223.826087 
L 383.127273 -223.826087 
L 387.636364 -223.826087 
L 392.145455 -223.826087 
L 396.654545 -223.826087 
L 401.163636 -223.826087 
L 405.672727 -223.826087 
L 410.181818 -223.826087 
L 414.690909 -223.826087 
L 419.2 -223.826087 
L 423.709091 -223.826087 
L 428.218182 -223.826087 
L 432.727273 -223.826087 
L 437.236364 -223.826087 
L 441.745455 -223.826087 
L 446.254545 -223.826087 
L 450.763636 -223.826087 
L 455.272727 -223.826087 
L 459.781818 -223.826087 
L 464.290909 -223.826087 
L 468.8 -223.826087 
L 473.309091 -223.826087 
L 477.818182 -223.826087 
L 482.327273 -223.826087 
L 486.836364 -223.826087 
L 491.345455 -223.826087 
L 495.854545 -223.826087 
L 500.363636 -223.826087 
L 504.872727 -223.826087 
L 509.381818 -223.826087 
L 513.890909 -223.826087 
L 518.4 -223.826087 
L 518.4 -223.827284 
L 518.4 -223.827284 
L 513.890909 -223.829151 
L 509.381818 -223.833622 
L 504.872727 -223.843894 
L 500.363636 -223.866517 
L 495.854545 -223.914285 
L 491.345455 -224.010944 
L 486.836364 -224.198344 
L 482.327273 -224.546328 
L 477.818182 -225.164963 
L 473.309091 -226.217371 
L 468.8 -227.929546 
L 464.290909 -230.591547 
L 459.781818 -234.543076 
L 455.272727 -240.13693 
L 450.763636 -247.677183 
L 446.254545 -257.335627 
L 441.745455 -269.059234 
L 437.236364 -282.490317 
L 432.727273 -296.926218 
L 428.218182 -311.34283 
L 423.709091 -324.494307 
L 419.2 -335.081672 
L 414.690909 -341.961337 
L 410.181818 -344.347826 
L 405.672727 -341.961337 
L 401.163636 -335.081672 
L 396.654545 -324.494307 
L 392.145455 -311.34283 
L 387.636364 -296.926218 
L 383.127273 -282.490317 
L 378.618182 -269.059234 
L 374.109091 -257.335627 
L 369.6 -247.677183 
L 365.090909 -240.13693 
L 360.581818 -234.543076 
L 356.072727 -230.591547 
L 351.563636 -227.929546 
L 347.054545 -226.217371 
L 342.545455 -225.164963 
L 338.036364 -224.546328 
L 333.527273 -224.198344 
L 329.018182 -224.010944 
L 324.509091 -223.914285 
L 320 -223.866517 
L 315.490909 -223.843894 
L 310.981818 -223.833622 
L 306.472727 -223.829151 
L 301.963636 -223.827284 
L 297.454545 -223.826087 
L 292.945455 -223.826087 
L 288.436364 -223.826087 
L 283.927273 -223.826087 
L 279.418182 -223.826087 
L 274.909091 -223.826087 
L 270.4 -223.826087 
L 265.890909 -223.826087 
L 261.381818 -223.826087 
L 256.872727 -223.826087 
L 252.363636 -223.826087 
L 247.854545 -223.826087 
L 243.345455 -223.826087 
L 238.836364 -223.826087 
L 234.327273 -223.826087 
L 229.818182 -223.826087 
L 225.309091 -223.826087 
L 220.8 -223.826087 
L 216.290909 -223.826087 
L 211.781818 -223.826087 
L 207.272727 -223.826087 
L 202.763636 -223.826087 
L 198.254545 -223.826087 
L 193.745455 -223.826087 
L 189.236364 -223.826087 
L 184.727273 -223.826087 
L 180.218182 -223.826087 
L 175.709091 -223.826087 
L 171.2 -223.826087 
L 166.690909 -223.826087 
L 162.181818 -223.826087 
L 157.672727 -223.826087 
L 153.163636 -223.826087 
L 148.654545 -223.826087 
L 144.145455 -223.826087 
L 139.636364 -223.826087 
L 135.127273 -223.826087 
L 130.618182 -223.826087 
L 126.109091 -223.826087 
L 121.6 -223.826087 
L 117.090909 -223.826087 
L 112.581818 -223.826087 
L 108.072727 -223.826087 
L 103.563636 -223.826087 
L 99.054545 -223.826087 
L 94.545455 -223.826089 
L 90.036364 -223.826093 
L 85.527273 -223.826106 
L 81.018182 -223.826143 
L 76.509091 -223.826249 
L 72 -223.826536 
z
" style="stroke: #0000ff; stroke-opacity: 0.4"/>
    </defs>
    <g clip-path="url(#p46ca547e26)">
     <use xlink:href="#m9754de6c64" x="0" y="720" style="fill: #0000ff; fill-opacity: 0.4; stroke: #0000ff; stroke-opacity: 0.4"/>
    </g>
   </g>
   <g id="matplotlib.axis_5">
    <g id="xtick_9">
     <g id="line2d_39">
      <path d="M 180.218182 496.173913 
L 180.218182 375.652174 
" clip-path="url(#p46ca547e26)" style="fill: none; stroke: #b0b0b0; stroke-width: 0.8; stroke-linecap: square"/>
     </g>
     <g id="line2d_40">
      <g>
       <use xlink:href="#m790cb88454" x="180.218182" y="496.173913" style="stroke: #000000; stroke-width: 0.8"/>
      </g>
     </g>
    </g>
    <g id="xtick_10">
     <g id="line2d_41">
      <path d="M 292.945455 496.173913 
L 292.945455 375.652174 
" clip-path="url(#p46ca547e26)" style="fill: none; stroke: #b0b0b0; stroke-width: 0.8; stroke-linecap: square"/>
     </g>
     <g id="line2d_42">
      <g>
       <use xlink:href="#m790cb88454" x="292.945455" y="496.173913" style="stroke: #000000; stroke-width: 0.8"/>
      </g>
     </g>
    </g>
    <g id="xtick_11">
     <g id="line2d_43">
      <path d="M 405.672727 496.173913 
L 405.672727 375.652174 
" clip-path="url(#p46ca547e26)" style="fill: none; stroke: #b0b0b0; stroke-width: 0.8; stroke-linecap: square"/>
     </g>
     <g id="line2d_44">
      <g>
       <use xlink:href="#m790cb88454" x="405.672727" y="496.173913" style="stroke: #000000; stroke-width: 0.8"/>
      </g>
     </g>
    </g>
    <g id="xtick_12">
     <g id="line2d_45">
      <path d="M 518.4 496.173913 
L 518.4 375.652174 
" clip-path="url(#p46ca547e26)" style="fill: none; stroke: #b0b0b0; stroke-width: 0.8; stroke-linecap: square"/>
     </g>
     <g id="line2d_46">
      <g>
       <use xlink:href="#m790cb88454" x="518.4" y="496.173913" style="stroke: #000000; stroke-width: 0.8"/>
      </g>
     </g>
    </g>
   </g>
   <g id="matplotlib.axis_6">
    <g id="ytick_11">
     <g id="line2d_47">
      <path d="M 72 496.173913 
L 518.4 496.173913 
" clip-path="url(#p46ca547e26)" style="fill: none; stroke: #b0b0b0; stroke-width: 0.8; stroke-linecap: square"/>
     </g>
     <g id="line2d_48">
      <g>
       <use xlink:href="#m2294ba45ae" x="72" y="496.173913" style="stroke: #000000; stroke-width: 0.8"/>
      </g>
     </g>
     <g id="text_15">
      <!-- 0.00 -->
      <g transform="translate(29.375 502.252663) scale(0.16 -0.16)">
       <use xlink:href="#DejaVuSans-30"/>
       <use xlink:href="#DejaVuSans-2e" x="63.623047"/>
       <use xlink:href="#DejaVuSans-30" x="95.410156"/>
       <use xlink:href="#DejaVuSans-30" x="159.033203"/>
      </g>
     </g>
    </g>
    <g id="ytick_12">
     <g id="line2d_49">
      <path d="M 72 466.043478 
L 518.4 466.043478 
" clip-path="url(#p46ca547e26)" style="fill: none; stroke: #b0b0b0; stroke-width: 0.8; stroke-linecap: square"/>
     </g>
     <g id="line2d_50">
      <g>
       <use xlink:href="#m2294ba45ae" x="72" y="466.043478" style="stroke: #000000; stroke-width: 0.8"/>
      </g>
     </g>
     <g id="text_16">
      <!-- 0.25 -->
      <g transform="translate(29.375 472.122228) scale(0.16 -0.16)">
       <use xlink:href="#DejaVuSans-30"/>
       <use xlink:href="#DejaVuSans-2e" x="63.623047"/>
       <use xlink:href="#DejaVuSans-32" x="95.410156"/>
       <use xlink:href="#DejaVuSans-35" x="159.033203"/>
      </g>
     </g>
    </g>
    <g id="ytick_13">
     <g id="line2d_51">
      <path d="M 72 435.913043 
L 518.4 435.913043 
" clip-path="url(#p46ca547e26)" style="fill: none; stroke: #b0b0b0; stroke-width: 0.8; stroke-linecap: square"/>
     </g>
     <g id="line2d_52">
      <g>
       <use xlink:href="#m2294ba45ae" x="72" y="435.913043" style="stroke: #000000; stroke-width: 0.8"/>
      </g>
     </g>
     <g id="text_17">
      <!-- 0.50 -->
      <g transform="translate(29.375 441.991793) scale(0.16 -0.16)">
       <use xlink:href="#DejaVuSans-30"/>
       <use xlink:href="#DejaVuSans-2e" x="63.623047"/>
       <use xlink:href="#DejaVuSans-35" x="95.410156"/>
       <use xlink:href="#DejaVuSans-30" x="159.033203"/>
      </g>
     </g>
    </g>
    <g id="ytick_14">
     <g id="line2d_53">
      <path d="M 72 405.782609 
L 518.4 405.782609 
" clip-path="url(#p46ca547e26)" style="fill: none; stroke: #b0b0b0; stroke-width: 0.8; stroke-linecap: square"/>
     </g>
     <g id="line2d_54">
      <g>
       <use xlink:href="#m2294ba45ae" x="72" y="405.782609" style="stroke: #000000; stroke-width: 0.8"/>
      </g>
     </g>
     <g id="text_18">
      <!-- 0.75 -->
      <g transform="translate(29.375 411.861359) scale(0.16 -0.16)">
       <use xlink:href="#DejaVuSans-30"/>
       <use xlink:href="#DejaVuSans-2e" x="63.623047"/>
       <use xlink:href="#DejaVuSans-37" x="95.410156"/>
       <use xlink:href="#DejaVuSans-35" x="159.033203"/>
      </g>
     </g>
    </g>
    <g id="ytick_15">
     <g id="line2d_55">
      <path d="M 72 375.652174 
L 518.4 375.652174 
" clip-path="url(#p46ca547e26)" style="fill: none; stroke: #b0b0b0; stroke-width: 0.8; stroke-linecap: square"/>
     </g>
     <g id="line2d_56">
      <g>
       <use xlink:href="#m2294ba45ae" x="72" y="375.652174" style="stroke: #000000; stroke-width: 0.8"/>
      </g>
     </g>
     <g id="text_19">
      <!-- 1.00 -->
      <g transform="translate(29.375 381.730924) scale(0.16 -0.16)">
       <use xlink:href="#DejaVuSans-31"/>
       <use xlink:href="#DejaVuSans-2e" x="63.623047"/>
       <use xlink:href="#DejaVuSans-30" x="95.410156"/>
       <use xlink:href="#DejaVuSans-30" x="159.033203"/>
      </g>
     </g>
    </g>
    <g id="text_20">
     <!-- Height -->
     <g transform="translate(22.0475 462.359293) rotate(-90) scale(0.16 -0.16)">
      <use xlink:href="#DejaVuSans-48"/>
      <use xlink:href="#DejaVuSans-65" x="75.195312"/>
      <use xlink:href="#DejaVuSans-69" x="136.71875"/>
      <use xlink:href="#DejaVuSans-67" x="164.501953"/>
      <use xlink:href="#DejaVuSans-68" x="227.978516"/>
      <use xlink:href="#DejaVuSans-74" x="291.357422"/>
     </g>
    </g>
   </g>
   <g id="line2d_57">
    <path d="M 72 496.173464 
L 76.509091 496.173751 
L 81.018182 496.173857 
L 85.527273 496.173894 
L 90.036364 496.173907 
L 94.545455 496.173911 
L 99.054545 496.173913 
L 103.563636 496.173913 
L 108.072727 496.173913 
L 112.581818 496.173913 
L 117.090909 496.173913 
L 121.6 496.173913 
L 126.109091 496.173913 
L 130.618182 496.173913 
L 135.127273 496.173913 
L 139.636364 496.173913 
L 144.145455 496.173913 
L 148.654545 496.173913 
L 153.163636 496.173913 
L 157.672727 496.173913 
L 162.181818 496.173913 
L 166.690909 496.173913 
L 171.2 496.173913 
L 175.709091 496.173913 
L 180.218182 496.173913 
L 184.727273 496.173913 
L 189.236364 496.173913 
L 193.745455 496.173913 
L 198.254545 496.173913 
L 202.763636 496.173913 
L 207.272727 496.173913 
L 211.781818 496.173913 
L 216.290909 496.173913 
L 220.8 496.173913 
L 225.309091 496.173913 
L 229.818182 496.173913 
L 234.327273 496.173913 
L 238.836364 496.173913 
L 243.345455 496.173913 
L 247.854545 496.173913 
L 252.363636 496.173913 
L 256.872727 496.173913 
L 261.381818 496.173913 
L 265.890909 496.173913 
L 270.4 496.173913 
L 274.909091 496.173913 
L 279.418182 496.173913 
L 283.927273 496.173913 
L 288.436364 496.173913 
L 292.945455 496.173913 
L 297.454545 496.173913 
L 301.963636 496.172716 
L 306.472727 496.170849 
L 310.981818 496.166378 
L 315.490909 496.156106 
L 320 496.133483 
L 324.509091 496.085715 
L 329.018182 495.989056 
L 333.527273 495.801656 
L 338.036364 495.453672 
L 342.545455 494.835037 
L 347.054545 493.782629 
L 351.563636 492.070454 
L 356.072727 489.408453 
L 360.581818 485.456924 
L 365.090909 479.86307 
L 369.6 472.322817 
L 374.109091 462.664373 
L 378.618182 450.940766 
L 383.127273 437.509683 
L 387.636364 423.073782 
L 392.145455 408.65717 
L 396.654545 395.505693 
L 401.163636 384.918328 
L 405.672727 378.038663 
L 410.181818 375.652174 
L 414.690909 378.038663 
L 419.2 384.918328 
L 423.709091 395.505693 
L 428.218182 408.65717 
L 432.727273 423.073782 
L 437.236364 437.509683 
L 441.745455 450.940766 
L 446.254545 462.664373 
L 450.763636 472.322817 
L 455.272727 479.86307 
L 459.781818 485.456924 
L 464.290909 489.408453 
L 468.8 492.070454 
L 473.309091 493.782629 
L 477.818182 494.835037 
L 482.327273 495.453672 
L 486.836364 495.801656 
L 491.345455 495.989056 
L 495.854545 496.085715 
L 500.363636 496.133483 
L 504.872727 496.156106 
L 509.381818 496.166378 
L 513.890909 496.170849 
L 518.4 496.172716 
" clip-path="url(#p46ca547e26)" style="fill: none; stroke: #0000ff; stroke-width: 1.5; stroke-linecap: square"/>
   </g>
   <g id="patch_13">
    <path d="M 72 496.173913 
L 72 375.652174 
" style="fill: none; stroke: #000000; stroke-width: 0.8; stroke-linejoin: miter; stroke-linecap: square"/>
   </g>
   <g id="patch_14">
    <path d="M 518.4 496.173913 
L 518.4 375.652174 
" style="fill: none; stroke: #000000; stroke-width: 0.8; stroke-linejoin: miter; stroke-linecap: square"/>
   </g>
   <g id="patch_15">
    <path d="M 72 496.173913 
L 518.4 496.173913 
" style="fill: none; stroke: #000000; stroke-width: 0.8; stroke-linejoin: miter; stroke-linecap: square"/>
   </g>
   <g id="patch_16">
    <path d="M 72 375.652174 
L 518.4 375.652174 
" style="fill: none; stroke: #000000; stroke-width: 0.8; stroke-linejoin: miter; stroke-linecap: square"/>
   </g>
   <g id="text_21">
    <!-- Time step  50 -->
    <g transform="translate(229.5765 369.652174) scale(0.192 -0.192)">
     <use xlink:href="#DejaVuSans-54"/>
     <use xlink:href="#DejaVuSans-69" x="57.958984"/>
     <use xlink:href="#DejaVuSans-6d" x="85.742188"/>
     <use xlink:href="#DejaVuSans-65" x="183.154297"/>
     <use xlink:href="#DejaVuSans-20" x="244.677734"/>
     <use xlink:href="#DejaVuSans-73" x="276.464844"/>
     <use xlink:href="#DejaVuSans-74" x="328.564453"/>
     <use xlink:href="#DejaVuSans-65" x="367.773438"/>
     <use xlink:href="#DejaVuSans-70" x="429.296875"/>
     <use xlink:href="#DejaVuSans-20" x="492.773438"/>
     <use xlink:href="#DejaVuSans-20" x="524.560547"/>
     <use xlink:href="#DejaVuSans-35" x="556.347656"/>
     <use xlink:href="#DejaVuSans-30" x="619.970703"/>
    </g>
   </g>
  </g>
  <g id="axes_4">
   <g id="patch_17">
    <path d="M 72 640.8 
L 518.4 640.8 
L 518.4 520.278261 
L 72 520.278261 
z
" style="fill: #ffffff"/>
   </g>
   <g id="PolyCollection_4">
    <defs>
     <path id="m22886389db" d="M 72 -199.721739 
L 72 -79.2 
L 76.509091 -79.2 
L 81.018182 -79.2 
L 85.527273 -79.2 
L 90.036364 -79.2 
L 94.545455 -79.2 
L 99.054545 -79.2 
L 103.563636 -79.2 
L 108.072727 -79.2 
L 112.581818 -79.2 
L 117.090909 -79.2 
L 121.6 -79.2 
L 126.109091 -79.2 
L 130.618182 -79.2 
L 135.127273 -79.2 
L 139.636364 -79.2 
L 144.145455 -79.2 
L 148.654545 -79.2 
L 153.163636 -79.2 
L 157.672727 -79.2 
L 162.181818 -79.2 
L 166.690909 -79.2 
L 171.2 -79.2 
L 175.709091 -79.2 
L 180.218182 -79.2 
L 184.727273 -79.2 
L 189.236364 -79.2 
L 193.745455 -79.2 
L 198.254545 -79.2 
L 202.763636 -79.2 
L 207.272727 -79.2 
L 211.781818 -79.2 
L 216.290909 -79.2 
L 220.8 -79.2 
L 225.309091 -79.2 
L 229.818182 -79.2 
L 234.327273 -79.2 
L 238.836364 -79.2 
L 243.345455 -79.2 
L 247.854545 -79.2 
L 252.363636 -79.2 
L 256.872727 -79.2 
L 261.381818 -79.2 
L 265.890909 -79.2 
L 270.4 -79.2 
L 274.909091 -79.2 
L 279.418182 -79.2 
L 283.927273 -79.2 
L 288.436364 -79.2 
L 292.945455 -79.2 
L 297.454545 -79.2 
L 301.963636 -79.2 
L 306.472727 -79.2 
L 310.981818 -79.2 
L 315.490909 -79.2 
L 320 -79.2 
L 324.509091 -79.2 
L 329.018182 -79.2 
L 333.527273 -79.2 
L 338.036364 -79.2 
L 342.545455 -79.2 
L 347.054545 -79.2 
L 351.563636 -79.2 
L 356.072727 -79.2 
L 360.581818 -79.2 
L 365.090909 -79.2 
L 369.6 -79.2 
L 374.109091 -79.2 
L 378.618182 -79.2 
L 383.127273 -79.2 
L 387.636364 -79.2 
L 392.145455 -79.2 
L 396.654545 -79.2 
L 401.163636 -79.2 
L 405.672727 -79.2 
L 410.181818 -79.2 
L 414.690909 -79.2 
L 419.2 -79.2 
L 423.709091 -79.2 
L 428.218182 -79.2 
L 432.727273 -79.2 
L 437.236364 -79.2 
L 441.745455 -79.2 
L 446.254545 -79.2 
L 450.763636 -79.2 
L 455.272727 -79.2 
L 459.781818 -79.2 
L 464.290909 -79.2 
L 468.8 -79.2 
L 473.309091 -79.2 
L 477.818182 -79.2 
L 482.327273 -79.2 
L 486.836364 -79.2 
L 491.345455 -79.2 
L 495.854545 -79.2 
L 500.363636 -79.2 
L 504.872727 -79.2 
L 509.381818 -79.2 
L 513.890909 -79.2 
L 518.4 -79.2 
L 518.4 -197.33525 
L 518.4 -197.33525 
L 513.890909 -190.455585 
L 509.381818 -179.86822 
L 504.872727 -166.716743 
L 500.363636 -152.300131 
L 495.854545 -137.86423 
L 491.345455 -124.433147 
L 486.836364 -112.70954 
L 482.327273 -103.051096 
L 477.818182 -95.510843 
L 473.309091 -89.916989 
L 468.8 -85.96546 
L 464.290909 -83.303459 
L 459.781818 -81.591284 
L 455.272727 -80.538876 
L 450.763636 -79.920241 
L 446.254545 -79.572257 
L 441.745455 -79.384858 
L 437.236364 -79.288198 
L 432.727273 -79.240431 
L 428.218182 -79.217807 
L 423.709091 -79.207535 
L 419.2 -79.203064 
L 414.690909 -79.201197 
L 410.181818 -79.2 
L 405.672727 -79.2 
L 401.163636 -79.2 
L 396.654545 -79.2 
L 392.145455 -79.2 
L 387.636364 -79.2 
L 383.127273 -79.2 
L 378.618182 -79.2 
L 374.109091 -79.2 
L 369.6 -79.2 
L 365.090909 -79.2 
L 360.581818 -79.2 
L 356.072727 -79.2 
L 351.563636 -79.2 
L 347.054545 -79.2 
L 342.545455 -79.2 
L 338.036364 -79.2 
L 333.527273 -79.2 
L 329.018182 -79.2 
L 324.509091 -79.2 
L 320 -79.2 
L 315.490909 -79.2 
L 310.981818 -79.2 
L 306.472727 -79.2 
L 301.963636 -79.2 
L 297.454545 -79.2 
L 292.945455 -79.2 
L 288.436364 -79.2 
L 283.927273 -79.2 
L 279.418182 -79.2 
L 274.909091 -79.2 
L 270.4 -79.2 
L 265.890909 -79.2 
L 261.381818 -79.2 
L 256.872727 -79.2 
L 252.363636 -79.2 
L 247.854545 -79.2 
L 243.345455 -79.2 
L 238.836364 -79.2 
L 234.327273 -79.2 
L 229.818182 -79.2 
L 225.309091 -79.2 
L 220.8 -79.2 
L 216.290909 -79.2 
L 211.781818 -79.200001 
L 207.272727 -79.200002 
L 202.763636 -79.200006 
L 198.254545 -79.200019 
L 193.745455 -79.200056 
L 189.236364 -79.200162 
L 184.727273 -79.200449 
L 180.218182 -79.201197 
L 175.709091 -79.203064 
L 171.2 -79.207535 
L 166.690909 -79.217807 
L 162.181818 -79.240431 
L 157.672727 -79.288198 
L 153.163636 -79.384858 
L 148.654545 -79.572257 
L 144.145455 -79.920241 
L 139.636364 -80.538876 
L 135.127273 -81.591284 
L 130.618182 -83.303459 
L 126.109091 -85.96546 
L 121.6 -89.916989 
L 117.090909 -95.510843 
L 112.581818 -103.051096 
L 108.072727 -112.70954 
L 103.563636 -124.433147 
L 99.054545 -137.86423 
L 94.545455 -152.300131 
L 90.036364 -166.716743 
L 85.527273 -179.86822 
L 81.018182 -190.455585 
L 76.509091 -197.33525 
L 72 -199.721739 
z
" style="stroke: #0000ff; stroke-opacity: 0.4"/>
    </defs>
    <g clip-path="url(#pc12abcada7)">
     <use xlink:href="#m22886389db" x="0" y="720" style="fill: #0000ff; fill-opacity: 0.4; stroke: #0000ff; stroke-opacity: 0.4"/>
    </g>
   </g>
   <g id="matplotlib.axis_7">
    <g id="xtick_13">
     <g id="line2d_58">
      <path d="M 180.218182 640.8 
L 180.218182 520.278261 
" clip-path="url(#pc12abcada7)" style="fill: none; stroke: #b0b0b0; stroke-width: 0.8; stroke-linecap: square"/>
     </g>
     <g id="line2d_59">
      <g>
       <use xlink:href="#m790cb88454" x="180.218182" y="640.8" style="stroke: #000000; stroke-width: 0.8"/>
      </g>
     </g>
     <g id="text_22">
      <!-- 25 -->
      <g transform="translate(170.038182 659.9575) scale(0.16 -0.16)">
       <use xlink:href="#DejaVuSans-32"/>
       <use xlink:href="#DejaVuSans-35" x="63.623047"/>
      </g>
     </g>
    </g>
    <g id="xtick_14">
     <g id="line2d_60">
      <path d="M 292.945455 640.8 
L 292.945455 520.278261 
" clip-path="url(#pc12abcada7)" style="fill: none; stroke: #b0b0b0; stroke-width: 0.8; stroke-linecap: square"/>
     </g>
     <g id="line2d_61">
      <g>
       <use xlink:href="#m790cb88454" x="292.945455" y="640.8" style="stroke: #000000; stroke-width: 0.8"/>
      </g>
     </g>
     <g id="text_23">
      <!-- 50 -->
      <g transform="translate(282.765455 659.9575) scale(0.16 -0.16)">
       <use xlink:href="#DejaVuSans-35"/>
       <use xlink:href="#DejaVuSans-30" x="63.623047"/>
      </g>
     </g>
    </g>
    <g id="xtick_15">
     <g id="line2d_62">
      <path d="M 405.672727 640.8 
L 405.672727 520.278261 
" clip-path="url(#pc12abcada7)" style="fill: none; stroke: #b0b0b0; stroke-width: 0.8; stroke-linecap: square"/>
     </g>
     <g id="line2d_63">
      <g>
       <use xlink:href="#m790cb88454" x="405.672727" y="640.8" style="stroke: #000000; stroke-width: 0.8"/>
      </g>
     </g>
     <g id="text_24">
      <!-- 75 -->
      <g transform="translate(395.492727 659.9575) scale(0.16 -0.16)">
       <use xlink:href="#DejaVuSans-37"/>
       <use xlink:href="#DejaVuSans-35" x="63.623047"/>
      </g>
     </g>
    </g>
    <g id="xtick_16">
     <g id="line2d_64">
      <path d="M 518.4 640.8 
L 518.4 520.278261 
" clip-path="url(#pc12abcada7)" style="fill: none; stroke: #b0b0b0; stroke-width: 0.8; stroke-linecap: square"/>
     </g>
     <g id="line2d_65">
      <g>
       <use xlink:href="#m790cb88454" x="518.4" y="640.8" style="stroke: #000000; stroke-width: 0.8"/>
      </g>
     </g>
     <g id="text_25">
      <!-- 100 -->
      <g transform="translate(503.13 659.9575) scale(0.16 -0.16)">
       <use xlink:href="#DejaVuSans-31"/>
       <use xlink:href="#DejaVuSans-30" x="63.623047"/>
       <use xlink:href="#DejaVuSans-30" x="127.246094"/>
      </g>
     </g>
    </g>
    <g id="text_26">
     <!-- Spatial grid index -->
     <g transform="translate(225.01375 679.4425) scale(0.16 -0.16)">
      <defs>
       <path id="DejaVuSans-53" d="M 3425 4513 
L 3425 3897 
Q 3066 4069 2747 4153 
Q 2428 4238 2131 4238 
Q 1616 4238 1336 4038 
Q 1056 3838 1056 3469 
Q 1056 3159 1242 3001 
Q 1428 2844 1947 2747 
L 2328 2669 
Q 3034 2534 3370 2195 
Q 3706 1856 3706 1288 
Q 3706 609 3251 259 
Q 2797 -91 1919 -91 
Q 1588 -91 1214 -16 
Q 841 59 441 206 
L 441 856 
Q 825 641 1194 531 
Q 1563 422 1919 422 
Q 2459 422 2753 634 
Q 3047 847 3047 1241 
Q 3047 1584 2836 1778 
Q 2625 1972 2144 2069 
L 1759 2144 
Q 1053 2284 737 2584 
Q 422 2884 422 3419 
Q 422 4038 858 4394 
Q 1294 4750 2059 4750 
Q 2388 4750 2728 4690 
Q 3069 4631 3425 4513 
z
" transform="scale(0.015625)"/>
       <path id="DejaVuSans-61" d="M 2194 1759 
Q 1497 1759 1228 1600 
Q 959 1441 959 1056 
Q 959 750 1161 570 
Q 1363 391 1709 391 
Q 2188 391 2477 730 
Q 2766 1069 2766 1631 
L 2766 1759 
L 2194 1759 
z
M 3341 1997 
L 3341 0 
L 2766 0 
L 2766 531 
Q 2569 213 2275 61 
Q 1981 -91 1556 -91 
Q 1019 -91 701 211 
Q 384 513 384 1019 
Q 384 1609 779 1909 
Q 1175 2209 1959 2209 
L 2766 2209 
L 2766 2266 
Q 2766 2663 2505 2880 
Q 2244 3097 1772 3097 
Q 1472 3097 1187 3025 
Q 903 2953 641 2809 
L 641 3341 
Q 956 3463 1253 3523 
Q 1550 3584 1831 3584 
Q 2591 3584 2966 3190 
Q 3341 2797 3341 1997 
z
" transform="scale(0.015625)"/>
       <path id="DejaVuSans-6c" d="M 603 4863 
L 1178 4863 
L 1178 0 
L 603 0 
L 603 4863 
z
" transform="scale(0.015625)"/>
       <path id="DejaVuSans-72" d="M 2631 2963 
Q 2534 3019 2420 3045 
Q 2306 3072 2169 3072 
Q 1681 3072 1420 2755 
Q 1159 2438 1159 1844 
L 1159 0 
L 581 0 
L 581 3500 
L 1159 3500 
L 1159 2956 
Q 1341 3275 1631 3429 
Q 1922 3584 2338 3584 
Q 2397 3584 2469 3576 
Q 2541 3569 2628 3553 
L 2631 2963 
z
" transform="scale(0.015625)"/>
       <path id="DejaVuSans-64" d="M 2906 2969 
L 2906 4863 
L 3481 4863 
L 3481 0 
L 2906 0 
L 2906 525 
Q 2725 213 2448 61 
Q 2172 -91 1784 -91 
Q 1150 -91 751 415 
Q 353 922 353 1747 
Q 353 2572 751 3078 
Q 1150 3584 1784 3584 
Q 2172 3584 2448 3432 
Q 2725 3281 2906 2969 
z
M 947 1747 
Q 947 1113 1208 752 
Q 1469 391 1925 391 
Q 2381 391 2643 752 
Q 2906 1113 2906 1747 
Q 2906 2381 2643 2742 
Q 2381 3103 1925 3103 
Q 1469 3103 1208 2742 
Q 947 2381 947 1747 
z
" transform="scale(0.015625)"/>
       <path id="DejaVuSans-6e" d="M 3513 2113 
L 3513 0 
L 2938 0 
L 2938 2094 
Q 2938 2591 2744 2837 
Q 2550 3084 2163 3084 
Q 1697 3084 1428 2787 
Q 1159 2491 1159 1978 
L 1159 0 
L 581 0 
L 581 3500 
L 1159 3500 
L 1159 2956 
Q 1366 3272 1645 3428 
Q 1925 3584 2291 3584 
Q 2894 3584 3203 3211 
Q 3513 2838 3513 2113 
z
" transform="scale(0.015625)"/>
       <path id="DejaVuSans-78" d="M 3513 3500 
L 2247 1797 
L 3578 0 
L 2900 0 
L 1881 1375 
L 863 0 
L 184 0 
L 1544 1831 
L 300 3500 
L 978 3500 
L 1906 2253 
L 2834 3500 
L 3513 3500 
z
" transform="scale(0.015625)"/>
      </defs>
      <use xlink:href="#DejaVuSans-53"/>
      <use xlink:href="#DejaVuSans-70" x="63.476562"/>
      <use xlink:href="#DejaVuSans-61" x="126.953125"/>
      <use xlink:href="#DejaVuSans-74" x="188.232422"/>
      <use xlink:href="#DejaVuSans-69" x="227.441406"/>
      <use xlink:href="#DejaVuSans-61" x="255.224609"/>
      <use xlink:href="#DejaVuSans-6c" x="316.503906"/>
      <use xlink:href="#DejaVuSans-20" x="344.287109"/>
      <use xlink:href="#DejaVuSans-67" x="376.074219"/>
      <use xlink:href="#DejaVuSans-72" x="439.550781"/>
      <use xlink:href="#DejaVuSans-69" x="480.664062"/>
      <use xlink:href="#DejaVuSans-64" x="508.447266"/>
      <use xlink:href="#DejaVuSans-20" x="571.923828"/>
      <use xlink:href="#DejaVuSans-69" x="603.710938"/>
      <use xlink:href="#DejaVuSans-6e" x="631.494141"/>
      <use xlink:href="#DejaVuSans-64" x="694.873047"/>
      <use xlink:href="#DejaVuSans-65" x="758.349609"/>
      <use xlink:href="#DejaVuSans-78" x="818.123047"/>
     </g>
    </g>
   </g>
   <g id="matplotlib.axis_8">
    <g id="ytick_16">
     <g id="line2d_66">
      <path d="M 72 640.8 
L 518.4 640.8 
" clip-path="url(#pc12abcada7)" style="fill: none; stroke: #b0b0b0; stroke-width: 0.8; stroke-linecap: square"/>
     </g>
     <g id="line2d_67">
      <g>
       <use xlink:href="#m2294ba45ae" x="72" y="640.8" style="stroke: #000000; stroke-width: 0.8"/>
      </g>
     </g>
     <g id="text_27">
      <!-- 0.00 -->
      <g transform="translate(29.375 646.87875) scale(0.16 -0.16)">
       <use xlink:href="#DejaVuSans-30"/>
       <use xlink:href="#DejaVuSans-2e" x="63.623047"/>
       <use xlink:href="#DejaVuSans-30" x="95.410156"/>
       <use xlink:href="#DejaVuSans-30" x="159.033203"/>
      </g>
     </g>
    </g>
    <g id="ytick_17">
     <g id="line2d_68">
      <path d="M 72 610.669565 
L 518.4 610.669565 
" clip-path="url(#pc12abcada7)" style="fill: none; stroke: #b0b0b0; stroke-width: 0.8; stroke-linecap: square"/>
     </g>
     <g id="line2d_69">
      <g>
       <use xlink:href="#m2294ba45ae" x="72" y="610.669565" style="stroke: #000000; stroke-width: 0.8"/>
      </g>
     </g>
     <g id="text_28">
      <!-- 0.25 -->
      <g transform="translate(29.375 616.748315) scale(0.16 -0.16)">
       <use xlink:href="#DejaVuSans-30"/>
       <use xlink:href="#DejaVuSans-2e" x="63.623047"/>
       <use xlink:href="#DejaVuSans-32" x="95.410156"/>
       <use xlink:href="#DejaVuSans-35" x="159.033203"/>
      </g>
     </g>
    </g>
    <g id="ytick_18">
     <g id="line2d_70">
      <path d="M 72 580.53913 
L 518.4 580.53913 
" clip-path="url(#pc12abcada7)" style="fill: none; stroke: #b0b0b0; stroke-width: 0.8; stroke-linecap: square"/>
     </g>
     <g id="line2d_71">
      <g>
       <use xlink:href="#m2294ba45ae" x="72" y="580.53913" style="stroke: #000000; stroke-width: 0.8"/>
      </g>
     </g>
     <g id="text_29">
      <!-- 0.50 -->
      <g transform="translate(29.375 586.61788) scale(0.16 -0.16)">
       <use xlink:href="#DejaVuSans-30"/>
       <use xlink:href="#DejaVuSans-2e" x="63.623047"/>
       <use xlink:href="#DejaVuSans-35" x="95.410156"/>
       <use xlink:href="#DejaVuSans-30" x="159.033203"/>
      </g>
     </g>
    </g>
    <g id="ytick_19">
     <g id="line2d_72">
      <path d="M 72 550.408696 
L 518.4 550.408696 
" clip-path="url(#pc12abcada7)" style="fill: none; stroke: #b0b0b0; stroke-width: 0.8; stroke-linecap: square"/>
     </g>
     <g id="line2d_73">
      <g>
       <use xlink:href="#m2294ba45ae" x="72" y="550.408696" style="stroke: #000000; stroke-width: 0.8"/>
      </g>
     </g>
     <g id="text_30">
      <!-- 0.75 -->
      <g transform="translate(29.375 556.487446) scale(0.16 -0.16)">
       <use xlink:href="#DejaVuSans-30"/>
       <use xlink:href="#DejaVuSans-2e" x="63.623047"/>
       <use xlink:href="#DejaVuSans-37" x="95.410156"/>
       <use xlink:href="#DejaVuSans-35" x="159.033203"/>
      </g>
     </g>
    </g>
    <g id="ytick_20">
     <g id="line2d_74">
      <path d="M 72 520.278261 
L 518.4 520.278261 
" clip-path="url(#pc12abcada7)" style="fill: none; stroke: #b0b0b0; stroke-width: 0.8; stroke-linecap: square"/>
     </g>
     <g id="line2d_75">
      <g>
       <use xlink:href="#m2294ba45ae" x="72" y="520.278261" style="stroke: #000000; stroke-width: 0.8"/>
      </g>
     </g>
     <g id="text_31">
      <!-- 1.00 -->
      <g transform="translate(29.375 526.357011) scale(0.16 -0.16)">
       <use xlink:href="#DejaVuSans-31"/>
       <use xlink:href="#DejaVuSans-2e" x="63.623047"/>
       <use xlink:href="#DejaVuSans-30" x="95.410156"/>
       <use xlink:href="#DejaVuSans-30" x="159.033203"/>
      </g>
     </g>
    </g>
    <g id="text_32">
     <!-- Height -->
     <g transform="translate(22.0475 606.98538) rotate(-90) scale(0.16 -0.16)">
      <use xlink:href="#DejaVuSans-48"/>
      <use xlink:href="#DejaVuSans-65" x="75.195312"/>
      <use xlink:href="#DejaVuSans-69" x="136.71875"/>
      <use xlink:href="#DejaVuSans-67" x="164.501953"/>
      <use xlink:href="#DejaVuSans-68" x="227.978516"/>
      <use xlink:href="#DejaVuSans-74" x="291.357422"/>
     </g>
    </g>
   </g>
   <g id="line2d_76">
    <path d="M 72 520.278261 
L 76.509091 522.66475 
L 81.018182 529.544415 
L 85.527273 540.13178 
L 90.036364 553.283257 
L 94.545455 567.699869 
L 99.054545 582.13577 
L 103.563636 595.566853 
L 108.072727 607.29046 
L 112.581818 616.948904 
L 117.090909 624.489157 
L 121.6 630.083011 
L 126.109091 634.03454 
L 130.618182 636.696541 
L 135.127273 638.408716 
L 139.636364 639.461124 
L 144.145455 640.079759 
L 148.654545 640.427743 
L 153.163636 640.615142 
L 157.672727 640.711802 
L 162.181818 640.759569 
L 166.690909 640.782193 
L 171.2 640.792465 
L 175.709091 640.796936 
L 180.218182 640.798803 
L 184.727273 640.799551 
L 189.236364 640.799838 
L 193.745455 640.799944 
L 198.254545 640.799981 
L 202.763636 640.799994 
L 207.272727 640.799998 
L 211.781818 640.799999 
L 216.290909 640.8 
L 220.8 640.8 
L 225.309091 640.8 
L 229.818182 640.8 
L 234.327273 640.8 
L 238.836364 640.8 
L 243.345455 640.8 
L 247.854545 640.8 
L 252.363636 640.8 
L 256.872727 640.8 
L 261.381818 640.8 
L 265.890909 640.8 
L 270.4 640.8 
L 274.909091 640.8 
L 279.418182 640.8 
L 283.927273 640.8 
L 288.436364 640.8 
L 292.945455 640.8 
L 297.454545 640.8 
L 301.963636 640.8 
L 306.472727 640.8 
L 310.981818 640.8 
L 315.490909 640.8 
L 320 640.8 
L 324.509091 640.8 
L 329.018182 640.8 
L 333.527273 640.8 
L 338.036364 640.8 
L 342.545455 640.8 
L 347.054545 640.8 
L 351.563636 640.8 
L 356.072727 640.8 
L 360.581818 640.8 
L 365.090909 640.8 
L 369.6 640.8 
L 374.109091 640.8 
L 378.618182 640.8 
L 383.127273 640.8 
L 387.636364 640.8 
L 392.145455 640.8 
L 396.654545 640.8 
L 401.163636 640.8 
L 405.672727 640.8 
L 410.181818 640.8 
L 414.690909 640.798803 
L 419.2 640.796936 
L 423.709091 640.792465 
L 428.218182 640.782193 
L 432.727273 640.759569 
L 437.236364 640.711802 
L 441.745455 640.615142 
L 446.254545 640.427743 
L 450.763636 640.079759 
L 455.272727 639.461124 
L 459.781818 638.408716 
L 464.290909 636.696541 
L 468.8 634.03454 
L 473.309091 630.083011 
L 477.818182 624.489157 
L 482.327273 616.948904 
L 486.836364 607.29046 
L 491.345455 595.566853 
L 495.854545 582.13577 
L 500.363636 567.699869 
L 504.872727 553.283257 
L 509.381818 540.13178 
L 513.890909 529.544415 
L 518.4 522.66475 
" clip-path="url(#pc12abcada7)" style="fill: none; stroke: #0000ff; stroke-width: 1.5; stroke-linecap: square"/>
   </g>
   <g id="patch_18">
    <path d="M 72 640.8 
L 72 520.278261 
" style="fill: none; stroke: #000000; stroke-width: 0.8; stroke-linejoin: miter; stroke-linecap: square"/>
   </g>
   <g id="patch_19">
    <path d="M 518.4 640.8 
L 518.4 520.278261 
" style="fill: none; stroke: #000000; stroke-width: 0.8; stroke-linejoin: miter; stroke-linecap: square"/>
   </g>
   <g id="patch_20">
    <path d="M 72 640.8 
L 518.4 640.8 
" style="fill: none; stroke: #000000; stroke-width: 0.8; stroke-linejoin: miter; stroke-linecap: square"/>
   </g>
   <g id="patch_21">
    <path d="M 72 520.278261 
L 518.4 520.278261 
" style="fill: none; stroke: #000000; stroke-width: 0.8; stroke-linejoin: miter; stroke-linecap: square"/>
   </g>
   <g id="text_33">
    <!-- Time step  75 -->
    <g transform="translate(229.5765 514.278261) scale(0.192 -0.192)">
     <use xlink:href="#DejaVuSans-54"/>
     <use xlink:href="#DejaVuSans-69" x="57.958984"/>
     <use xlink:href="#DejaVuSans-6d" x="85.742188"/>
     <use xlink:href="#DejaVuSans-65" x="183.154297"/>
     <use xlink:href="#DejaVuSans-20" x="244.677734"/>
     <use xlink:href="#DejaVuSans-73" x="276.464844"/>
     <use xlink:href="#DejaVuSans-74" x="328.564453"/>
     <use xlink:href="#DejaVuSans-65" x="367.773438"/>
     <use xlink:href="#DejaVuSans-70" x="429.296875"/>
     <use xlink:href="#DejaVuSans-20" x="492.773438"/>
     <use xlink:href="#DejaVuSans-20" x="524.560547"/>
     <use xlink:href="#DejaVuSans-37" x="556.347656"/>
     <use xlink:href="#DejaVuSans-35" x="619.970703"/>
    </g>
   </g>
  </g>
 </g>
 <defs>
  <clipPath id="pcfc093f760">
   <rect x="72" y="86.4" width="446.4" height="120.521739"/>
  </clipPath>
  <clipPath id="pffe30bd21d">
   <rect x="72" y="231.026087" width="446.4" height="120.521739"/>
  </clipPath>
  <clipPath id="p46ca547e26">
   <rect x="72" y="375.652174" width="446.4" height="120.521739"/>
  </clipPath>
  <clipPath id="pc12abcada7">
   <rect x="72" y="520.278261" width="446.4" height="120.521739"/>
  </clipPath>
 </defs>
</svg>
